# xmcd CD database file
#
# Track frame offsets:
#	150
#	4678
#	22892
#	39776
#	55971
#	77365
#	79424
#	94620
#	114276
#	115244
#	134103
#	151050
#	154786
#	169952
#	187936
#
# Disc length: 2726 seconds
#
# Revision: 2
# Processed by: cddbd v1.4b41PL1 Copyright (c) Steve Scherf et al.
# Submitted via: Feurio! 1.52 - http://www.feurio.com
#
DISCID=a80aa40f
DTITLE=Rednex - Farm Out
DYEAR=1900
DGENRE=
TTITLE0=Intro - Fresh Pigs And More
TTITLE1=The Spirit Of The Hawk
TTITLE2=The Way I Mate
TTITLE3=The Devil Went Down To Georgia
TTITLE4=Hold Me For A While
TTITLE5=Boring
TTITLE6=Where You Gonna Go
TTITLE7=Maggie Moonshine (extendet Version)
TTITLE8=Animal In The Rain
TTITLE9=Ranger Jack
TTITLE10=Get The Truck Loaded
TTITLE11=Message From Our Sponsors
TTITLE12=Is He Alive
TTITLE13=McKenzie Brothers II (cont.)
TTITLE14=Bottleneck Bob 2000
EXTD=
EXTT0=(c) MaKueh Records
EXTT1=(c) MaKueh Records
EXTT2=(c) MaKueh Records
EXTT3=(c) MaKueh Records
EXTT4=(c) MaKueh Records
EXTT5=(c) MaKueh Records
EXTT6=(c) MaKueh Records
EXTT7=(c) MaKueh Records
EXTT8=(c) MaKueh Records
EXTT9=(c) MaKueh Records
EXTT10=(c) MaKueh Records
EXTT11=(c) MaKueh Records
EXTT12=(c) MaKueh Records
EXTT13=(c) MaKueh Records
EXTT14=(c) MaKueh Records
PLAYORDER=
